<?xml version="1.0" encoding="utf-8"?>
<!-- Generator: Adobe Illustrator 19.0.0, SVG Export Plug-In . SVG Version: 6.00 Build 0)  -->
<svg version="1.1" baseProfile="tiny" id="Слой_1"
	 xmlns="http://www.w3.org/2000/svg" xmlns:xlink="http://www.w3.org/1999/xlink" x="0px" y="0px" viewBox="0 0 241 236.9"
	 xml:space="preserve">
<g>
	<path fill="#7EB105" d="M28.2,130.7h191.7c9.3,0,16.9-7.6,16.9-16.9c0-9.3-7.6-16.9-16.9-16.9h-17c0.2,0,0.1,2.8-0.4,4.6
		c-1,3.9-3.5,6.8-7,8.8c-2.3,1.3-4.9,1.8-7.5,1.8c-1.3,0-2.6-0.3-3.9-0.6c-3.9-1-7.1-2.8-9.1-6.3l-5.2-8.3H78.4l-5.2,8.3
		c-2,3.5-5.3,5.6-9.1,6.6c-1.3,0.3-2.6,0.3-3.9,0.3c-2.6,0-5.2-0.8-7.5-2.1c-3.5-2-6-4.6-7-8.4c-0.5-1.8-0.6-4.7-0.4-4.7h-17
		c-9.3,0-16.9,7.6-16.9,16.9C11.3,123.1,18.9,130.7,28.2,130.7L28.2,130.7z M28.2,130.7"/>
	<path fill="#7EB105" d="M56.4,103.3c1.7,1,3.8,1.3,5.7,0.8c1.9-0.5,3.6-1.8,4.6-3.5l45.1-78.1c1-1.7,1.3-3.8,0.8-5.7
		c-0.5-1.9-1.8-3.6-3.5-4.6c-1.2-0.7-2.4-1-3.7-1c-0.7,0-1.3,0.1-2,0.3c-1.9,0.5-3.6,1.8-4.6,3.5L53.6,93.1c-1,1.7-1.3,3.8-0.8,5.7
		C53.4,100.7,54.6,102.3,56.4,103.3L56.4,103.3z M56.4,103.3"/>
	<path fill="#7EB105" d="M186,104.1c1.9,0.5,4,0.3,5.7-0.8c1.7-1,3-2.6,3.5-4.6c0.5-1.9,0.3-4-0.8-5.7l-45.1-78.1
		c-1-1.7-2.6-3-4.6-3.5c-0.6-0.2-1.3-0.3-2-0.3c-1.3,0-2.6,0.3-3.7,1c-1.7,1-3,2.6-3.5,4.6c-0.5,1.9-0.3,4,0.8,5.7l45.1,78.1
		C182.4,102.3,184.1,103.6,186,104.1L186,104.1z M186,104.1"/>
	<path fill="#FFFFFF" d="M67.7,159.3c-2.1,0-3.8,1.7-3.8,3.8v37.6c0,2.1,1.7,3.8,3.8,3.8c2.1,0,3.8-1.7,3.8-3.8V163
		C71.4,160.9,69.7,159.3,67.7,159.3L67.7,159.3z M67.7,159.3"/>
	<path fill="#FFFFFF" d="M180.4,159.3c-2.1,0-3.8,1.7-3.8,3.8v37.6c0,2.1,1.7,3.8,3.8,3.8c2.1,0,3.8-1.7,3.8-3.8V163
		C184.2,160.9,182.5,159.3,180.4,159.3L180.4,159.3z M180.4,159.3"/>
	<path fill="#F6731C" d="M28.2,138.2h-1.3l12.5,84.4c0.8,5.5,5.6,9.6,11.2,9.6h143.7c5.4,0,10.1-3.9,11.1-9.2l15.7-84.8H28.2z
		 M78.9,200.6c0,6.2-5.1,11.3-11.3,11.3c-6.2,0-11.3-5.1-11.3-11.3V163c0-6.2,5.1-11.3,11.3-11.3c6.2,0,11.3,5.1,11.3,11.3V200.6z
		 M116.5,200.6c0,6.2-5.1,11.3-11.3,11.3c-6.2,0-11.3-5.1-11.3-11.3V163c0-6.2,5.1-11.3,11.3-11.3s11.3,5.1,11.3,11.3V200.6z
		 M154.1,200.6c0,6.2-5.1,11.3-11.3,11.3c-6.2,0-11.3-5.1-11.3-11.3V163c0-6.2,5.1-11.3,11.3-11.3c6.2,0,11.3,5.1,11.3,11.3V200.6z
		 M191.7,200.6c0,6.2-5.1,11.3-11.3,11.3c-6.2,0-11.3-5.1-11.3-11.3V163c0-6.2,5.1-11.3,11.3-11.3c6.2,0,11.3,5.1,11.3,11.3V200.6z
		 M191.7,200.6"/>
	<path fill="#FFFFFF" d="M105.3,159.3c-2.1,0-3.8,1.7-3.8,3.8v37.6c0,2.1,1.7,3.8,3.8,3.8c2.1,0,3.8-1.7,3.8-3.8V163
		C109,160.9,107.3,159.3,105.3,159.3L105.3,159.3z M105.3,159.3"/>
	<g>
		<path fill="none" d="M35.6,218.8c0.8,5.5,5.6,9.6,11.2,9.6h143.7c5.4,0,10.1-3.9,11.1-9.2l15.7-84.8H23.2L35.6,218.8z M139.1,163
			c0-2.1,1.7-3.8,3.8-3.8c2.1,0,3.8,1.7,3.8,3.8v37.6c0,2.1-1.7,3.8-3.8,3.8c-2.1,0-3.8-1.7-3.8-3.8V163z"/>
		<path fill="none" d="M52.6,99.6c1.7,1,3.8,1.3,5.7,0.8c1.9-0.5,3.6-1.8,4.6-3.5L108,18.7c1-1.7,1.3-3.8,0.8-5.7
			c-0.5-1.9-1.8-3.6-3.5-4.6c-1.2-0.7-2.4-1-3.8-1c-0.7,0-1.3,0.1-2,0.3C97.6,8.2,96,9.4,95,11.2L49.9,89.3c-1,1.7-1.3,3.8-0.8,5.7
			C49.6,97,50.9,98.6,52.6,99.6z"/>
		<path fill="none" d="M182.2,100.3c1.9,0.5,4,0.3,5.7-0.8c1.7-1,3-2.6,3.5-4.6c0.5-1.9,0.2-4-0.8-5.7l-45.1-78.1
			c-1-1.7-2.6-3-4.6-3.5c-0.6-0.2-1.3-0.3-2-0.3c-1.3,0-2.6,0.3-3.7,1c-1.7,1-3,2.6-3.5,4.6c-0.5,1.9-0.3,4,0.8,5.7l45.1,78.1
			C178.7,98.6,180.3,99.8,182.2,100.3z"/>
		<path fill="none" d="M24.4,126.9h191.7c9.3,0,16.9-7.6,16.9-16.9c0-9.3-7.6-16.9-16.9-16.9h-17c0.2,0,0.1,2.9-0.4,4.7
			c-1,3.9-3.5,6.4-7,8.4c-2.3,1.3-4.9,2.1-7.5,2.1c-1.3,0-2.6,0-3.9-0.3c-3.9-1-7.1-3.2-9.1-6.6l-5.2-8.3H74.6l-5.2,8.3
			c-2,3.5-5.3,5.3-9.1,6.3c-1.3,0.3-2.6,0.6-3.9,0.6c-2.6,0-5.2-0.5-7.5-1.8c-3.5-2-6-4.9-7-8.8c-0.5-1.8-0.6-4.6-0.4-4.6h-17
			c-9.3,0-16.9,7.6-16.9,16.9C7.5,119.3,15.1,126.9,24.4,126.9z"/>
		<path fill="#FFFFFF" d="M142.8,204.4c2.1,0,3.8-1.7,3.8-3.8V163c0-2.1-1.7-3.8-3.8-3.8c-2.1,0-3.8,1.7-3.8,3.8v37.6
			C139.1,202.7,140.8,204.4,142.8,204.4z"/>
		<path d="M15.3,131.5l12.9,87.8c1.4,9.1,9.4,16.6,18.6,16.6h143.7c9.1,0,16.8-7.2,18.5-16.1l16.3-87.9c9-3.6,15.3-12.4,15.3-22.7
			c0-13.5-11-23.7-24.4-23.7h-19.8L152.1,8.2c-2-3.5-5.3-6.3-9.1-7.4c-3.9-1-7.9-0.7-11.4,1.3c-3.5,2-6,5.2-7,9
			c-1,3.9-0.5,8.6,1.5,12.1l35.6,62.3H78.9l35.6-62.4c2-3.5,2.5-7.9,1.5-11.8c-1-3.9-3.5-7.3-7-9.3c-3.5-2-7.5-2.6-11.4-1.6
			c-3.9,1-7.1,4.2-9.1,7.7L44.2,85.6H24.4C11,85.6,0,95.8,0,109.3C0,119.5,6.3,127.9,15.3,131.5z M201.6,219.2
			c-1,5.3-5.7,9.2-11.1,9.2H46.8c-5.5,0-10.3-4.1-11.2-9.6l-12.5-84.4h194.1L201.6,219.2z M132.6,18.7c-1-1.7-1.3-3.8-0.8-5.7
			c0.5-1.9,1.8-3.6,3.5-4.6c1.2-0.7,2.4-1,3.7-1c0.7,0,1.3,0.1,2,0.3c1.9,0.5,3.6,1.8,4.6,3.5l45.1,78.1c1,1.7,1.3,3.8,0.8,5.7
			c-0.5,1.9-1.8,3.6-3.5,4.6c-1.7,1-3.8,1.3-5.7,0.8c-1.9-0.5-3.6-1.8-4.6-3.5L132.6,18.7z M49.9,89.3L95,11.2c1-1.7,2.6-3,4.6-3.5
			c0.6-0.2,1.3-0.3,2-0.3c1.3,0,2.6,0.3,3.8,1c1.7,1,3,2.6,3.5,4.6c0.5,1.9,0.3,4-0.8,5.7L62.9,96.8c-1,1.7-2.6,3-4.6,3.5
			c-1.9,0.5-4,0.3-5.7-0.8c-1.7-1-3-2.6-3.5-4.6C48.6,93.1,48.9,91,49.9,89.3z M24.4,93.1h17c-0.2,0-0.1,2.9,0.4,4.6
			c1,3.9,3.5,6.8,7,8.8c2.3,1.3,4.9,1.8,7.5,1.8c1.3,0,2.6-0.3,3.9-0.6c3.9-1,7.1-2.8,9.1-6.3l5.2-8.3H166l5.2,8.3
			c2,3.5,5.3,5.6,9.1,6.6c1.3,0.3,2.6,0.3,3.9,0.3c2.6,0,5.2-0.8,7.5-2.1c3.5-2,6-4.6,7-8.4c0.5-1.8,0.6-4.7,0.4-4.7h17
			c9.3,0,16.9,7.6,16.9,16.9c0,9.3-7.6,16.9-16.9,16.9H24.4c-9.3,0-16.9-7.6-16.9-16.9C7.5,100.7,15.1,93.1,24.4,93.1z"/>
	</g>
	<path d="M63.9,208.1c6.2,0,11.3-5.1,11.3-11.3v-37.6c0-6.2-5.1-11.3-11.3-11.3c-6.2,0-11.3,5.1-11.3,11.3v37.6
		C52.6,203.1,57.7,208.1,63.9,208.1L63.9,208.1z M60.1,159.3c0-2.1,1.7-3.8,3.8-3.8c2.1,0,3.8,1.7,3.8,3.8v37.6
		c0,2.1-1.7,3.8-3.8,3.8c-2.1,0-3.8-1.7-3.8-3.8V159.3z M60.1,159.3"/>
	<path d="M101.5,208.1c6.2,0,11.3-5.1,11.3-11.3v-37.6c0-6.2-5.1-11.3-11.3-11.3c-6.2,0-11.3,5.1-11.3,11.3v37.6
		C90.2,203.1,95.3,208.1,101.5,208.1L101.5,208.1z M97.7,159.3c0-2.1,1.7-3.8,3.8-3.8c2.1,0,3.8,1.7,3.8,3.8v37.6
		c0,2.1-1.7,3.8-3.8,3.8c-2.1,0-3.8-1.7-3.8-3.8V159.3z M97.7,159.3"/>
	<path d="M139.1,208.1c6.2,0,11.3-5.1,11.3-11.3v-37.6c0-6.2-5.1-11.3-11.3-11.3s-11.3,5.1-11.3,11.3v37.6
		C127.8,203.1,132.9,208.1,139.1,208.1L139.1,208.1z M135.3,159.3c0-2.1,1.7-3.8,3.8-3.8c2.1,0,3.8,1.7,3.8,3.8v37.6
		c0,2.1-1.7,3.8-3.8,3.8c-2.1,0-3.8-1.7-3.8-3.8V159.3z M135.3,159.3"/>
	<path d="M176.7,208.1c6.2,0,11.3-5.1,11.3-11.3v-37.6c0-6.2-5.1-11.3-11.3-11.3c-6.2,0-11.3,5.1-11.3,11.3v37.6
		C165.4,203.1,170.5,208.1,176.7,208.1L176.7,208.1z M172.9,159.3c0-2.1,1.7-3.8,3.8-3.8c2.1,0,3.8,1.7,3.8,3.8v37.6
		c0,2.1-1.7,3.8-3.8,3.8c-2.1,0-3.8-1.7-3.8-3.8V159.3z M172.9,159.3"/>
</g>
</svg>
